<?xml version="1.0" encoding="UTF-8"?> <svg xmlns="http://www.w3.org/2000/svg" viewBox="0 0 50.028 32"><defs><style>.a{fill:#252061;}</style></defs><path class="a" d="M-109.582,23.225a20.089,20.089,0,0,1-11.049-2.533c2.061-2.936-1.114-2.7-2.37-3.683l4.145-.663a7.679,7.679,0,0,1-.86-4.639,23.131,23.131,0,0,0,6.677,6.217c-1.533-.086-4.054-.834-4.431-.149,1.954,2.27,6.838,1.824,8.94,1.6,7.957,6.846,15.25,5.081,21.376-.3,3.872.332,7.137.46,8.654-.92-.062-.739-1.217-.566-2.322-.394a4.738,4.738,0,0,1-1.754.1,26.479,26.479,0,0,0,5.919-6.191c.61,1.708-.862,4.851-.244,4.689l3.928,1.11c-1.454.255-4.813.849-2.533,2.993-2.912,2.858-6.6,2.345-10.131,2.533C-90.046,26.048-94.2,28-98.425,28-102.024,28-105.675,26.584-109.582,23.225ZM-98.1,20.856a1.063,1.063,0,0,0-.017-.179,1.022,1.022,0,0,0-.018.182v.052c0-.018,0-.035,0-.052l0-.272c-.917-3.276-17.653-3.458-10.789-12.212,1.881-1.306,3.074-3.04-.814-5.617V.559l3.338-2.2c3,1.065,4.8.893,5.21-2.36h6.153c.409,3.254,2.209,3.425,5.21,2.36l3.338,2.2v2.2c-3.888,2.577-2.695,4.311-.814,5.617,6.863,8.755-9.875,8.935-10.79,12.213l0,.269c0,.018,0,.036,0,.054Z" transform="translate(123 4)"></path></svg> 